<?xml version="1.0" standalone="no"?>
<!DOCTYPE svg PUBLIC "-//W3C//DTD SVG 20010904//EN"
 "http://www.w3.org/TR/2001/REC-SVG-20010904/DTD/svg10.dtd">
<svg version="1.0" xmlns="http://www.w3.org/2000/svg"
 width="300.000000pt" height="227.000000pt" viewBox="0 0 300.000000 227.000000"
 preserveAspectRatio="xMidYMid meet">
<metadata>
Created by potrace 1.10, written by Peter Selinger 2001-2011
</metadata>
<g transform="translate(0.000000,227.000000) scale(0.100000,-0.100000)"
fill="#000000" stroke="none">
<path d="M1000 2224 c-41 -17 -105 -77 -126 -116 -20 -38 -17 -107 6 -150 12
-23 22 -67 26 -110 9 -120 40 -178 119 -223 15 -9 14 -12 -16 -27 -19 -9 -60
-23 -92 -33 -60 -17 -77 -33 -160 -154 -35 -50 -92 -95 -111 -88 -8 3 -24 34
-34 69 -17 54 -18 65 -6 79 29 32 9 254 -24 267 -20 7 -44 -27 -40 -58 3 -21
-3 -26 -47 -38 -27 -8 -56 -19 -62 -24 -18 -15 -16 -93 3 -130 14 -28 14 -30
0 -25 -22 9 -24 -1 -15 -74 9 -78 39 -166 69 -209 l22 -31 -28 -62 c-36 -79
-45 -187 -19 -238 22 -44 62 -87 98 -106 44 -23 41 -11 -10 37 -25 25 -52 59
-59 77 -20 47 -17 141 6 183 15 27 19 30 20 15 1 -38 20 7 20 50 l1 40 17 -41
c21 -51 55 -94 74 -94 8 0 19 10 25 23 6 12 23 50 38 84 25 56 78 113 92 99 3
-3 -6 -24 -19 -48 -57 -98 -40 -200 46 -284 29 -28 65 -53 82 -57 33 -6 118
13 136 31 7 7 18 12 25 12 7 0 13 6 13 13 1 23 69 64 119 71 38 5 59 16 97 49
27 23 51 46 53 50 7 17 49 57 59 57 6 0 12 6 15 13 2 8 30 12 93 12 49 0 95 4
101 8 18 11 290 19 342 10 37 -7 48 -14 65 -45 22 -39 89 -109 336 -353 172
-169 171 -163 28 -164 -74 -1 -86 1 -82 14 4 8 1 15 -5 15 -6 0 -11 -4 -11
-10 0 -6 -35 -10 -84 -10 l-84 0 0 45 c0 27 -8 57 -19 74 -10 16 -84 97 -165
180 -82 83 -148 154 -148 159 0 4 16 14 35 21 44 16 57 9 124 -69 58 -66 232
-243 296 -300 47 -42 -99 119 -257 283 l-113 118 -60 -19 c-33 -11 -74 -17
-91 -15 -59 9 -64 -8 -64 -195 0 -178 6 -218 39 -253 12 -13 21 -27 21 -31 0
-12 -279 -8 -286 3 -3 5 -2 9 3 9 15 0 53 66 53 92 0 14 -6 31 -14 37 -23 19
-28 76 -11 117 23 56 19 57 -40 18 -30 -21 -58 -34 -62 -31 -3 4 -4 8 -2 10
50 38 98 81 95 84 -10 10 -106 -64 -106 -83 0 -6 -13 -17 -30 -24 -39 -16 -54
-36 -55 -74 -1 -17 -2 -55 -3 -83 -2 -44 -5 -53 -20 -53 -17 0 -18 5 -7 75 7
41 9 75 4 75 -10 0 -16 -22 -24 -92 -4 -34 -11 -58 -18 -58 -7 0 -36 7 -66 15
-48 12 -58 12 -95 -2 -22 -9 -45 -19 -51 -23 -19 -13 -80 -31 -125 -37 -49 -6
-57 -9 -47 -20 13 -12 128 16 194 47 65 30 65 30 123 15 32 -8 93 -15 136 -16
58 0 73 -3 57 -9 -13 -5 -23 -11 -23 -12 0 -2 126 -3 280 -3 154 0 280 2 280
5 0 3 -29 16 -65 28 -112 40 -106 27 -106 252 0 181 1 195 18 198 13 2 78 -57
203 -183 162 -163 185 -190 185 -218 0 -29 -4 -33 -50 -50 -27 -10 -54 -22
-59 -27 -5 -5 136 -8 332 -7 188 1 338 5 334 8 -4 3 -35 16 -68 28 -57 21 -78
39 -305 267 -134 134 -246 249 -248 255 -2 7 21 10 68 7 39 -1 71 0 71 3 0 24
-221 51 -384 47 l-140 -3 -7 30 c-5 16 -7 30 -6 32 9 8 157 24 203 21 30 -1
54 0 54 3 0 3 -30 34 -66 69 l-66 63 274 274 c263 263 275 274 335 294 35 11
65 25 68 30 4 5 -86 9 -225 9 -127 0 -229 -4 -226 -8 3 -5 24 -15 48 -22 57
-18 68 -27 68 -58 0 -20 -45 -71 -205 -232 -144 -146 -205 -214 -205 -229 0
-23 0 -23 32 4 18 15 48 46 68 68 19 23 80 90 135 150 190 205 196 215 193
261 l-3 41 50 6 c54 7 72 0 58 -25 -4 -8 -71 -79 -148 -158 -77 -79 -149 -154
-160 -167 l-20 -24 22 11 c12 7 23 17 26 24 2 7 7 11 10 8 2 -3 -39 -52 -93
-109 -131 -139 -132 -140 -92 -196 36 -51 38 -50 -58 -64 -113 -17 -172 -30
-183 -39 -7 -6 -27 -13 -46 -17 -18 -4 -49 -18 -69 -31 -48 -33 -53 -22 -7 18
85 74 94 89 93 163 0 11 1 132 2 268 2 240 2 250 -19 278 -11 15 -21 31 -21
34 0 3 52 5 115 5 63 0 115 -3 115 -7 0 -3 -8 -15 -17 -26 -16 -16 -18 -45
-21 -218 -2 -144 0 -204 9 -221 l13 -23 7 25 c4 14 7 114 8 222 1 227 -6 211
108 249 34 11 65 25 68 30 4 5 -79 9 -207 9 l-213 0 -17 58 c-20 69 -73 134
-127 155 -53 22 -242 22 -291 1z m110 -19 c-16 -19 -10 -19 26 0 65 34 170 5
220 -61 22 -29 59 -122 51 -130 -1 -2 -39 -4 -84 -5 -76 -3 -84 -1 -124 26
-23 17 -53 47 -67 68 -32 47 -42 41 -12 -8 29 -47 92 -93 139 -101 64 -11 143
-38 148 -51 3 -7 -3 -36 -12 -65 -23 -69 -125 -172 -125 -126 0 6 18 28 40 48
44 41 52 78 24 118 -12 17 -25 22 -62 22 -26 0 -66 9 -89 19 -45 21 -103 90
-103 125 0 12 -5 28 -10 36 -8 12 -10 11 -10 -6 0 -17 -8 -23 -36 -27 -45 -8
-97 -47 -114 -86 -17 -42 -30 -30 -30 28 0 98 96 190 199 191 37 0 42 -2 31
-15z m-36 -159 c3 -13 17 -34 31 -47 32 -31 31 -36 -6 -44 -22 -5 -28 -10 -21
-17 8 -8 20 -7 41 2 23 9 38 9 62 1 18 -6 47 -11 66 -11 24 0 32 -4 27 -12 -5
-8 -2 -9 11 -5 24 10 45 -10 45 -43 0 -30 -34 -80 -55 -80 -8 0 -17 -10 -20
-22 -20 -65 -93 -121 -175 -134 -39 -6 -44 -4 -86 37 -48 47 -61 80 -66 169
-3 47 0 55 16 58 30 6 45 -17 22 -34 -25 -18 -15 -28 19 -20 55 14 17 84 -40
74 -19 -4 -24 0 -28 21 -11 58 58 128 129 130 15 1 24 -7 28 -23z m380 -132
c3 -9 6 -76 6 -149 l0 -134 -49 30 c-27 17 -59 42 -71 55 l-23 23 32 27 c39
33 71 93 71 134 0 32 23 42 34 14z m-122 -219 c21 -20 59 -45 83 -57 34 -17
45 -28 45 -45 0 -27 -2 -28 -39 -9 -15 8 -41 14 -57 14 -34 -1 -81 21 -108 51
-15 16 -22 18 -33 10 -10 -9 -13 -8 -13 4 0 16 54 67 72 67 6 0 28 -16 50 -35z
m-737 -49 c7 -58 7 -59 -17 -52 -48 15 -53 13 -50 -22 1 -21 -2 -31 -8 -27
-14 9 -13 68 2 83 8 8 15 9 25 1 10 -9 13 -3 13 33 0 84 24 73 35 -16z m605
-4 c0 -10 -14 -37 -31 -60 -28 -38 -35 -42 -73 -42 -52 0 -57 4 -44 40 8 24
20 32 63 45 30 8 57 20 60 25 10 16 25 11 25 -8z m55 -13 c4 -6 0 -29 -9 -52
-13 -35 -26 -48 -75 -75 -32 -17 -62 -32 -66 -32 -4 0 11 20 33 44 22 24 52
62 67 85 29 42 39 49 50 30z m-759 -41 c-4 -49 -19 -57 -24 -15 -3 24 11 57
24 57 2 0 2 -19 0 -42z m-38 -15 c0 -35 -1 -36 -14 -18 -15 20 -18 38 -7 48
14 15 21 5 21 -30z m870 12 c22 -6 22 -7 -11 -46 -19 -22 -54 -75 -78 -118
l-44 -79 -60 5 c-33 3 -64 9 -68 13 -5 4 -5 23 -2 41 6 31 15 38 88 74 71 35
85 46 102 82 13 27 25 41 35 38 8 -2 25 -6 38 -10z m-755 -4 c33 -13 42 -53
21 -97 -21 -43 -32 -48 -87 -40 -37 6 -45 11 -55 40 -17 46 -17 46 35 46 45 0
46 -1 29 -19 -17 -19 -17 -19 18 -3 37 18 46 39 21 48 -8 4 -15 12 -15 20 0
17 1 17 33 5z m461 -59 c7 -49 -5 -49 -30 -1 -12 24 -13 33 -3 45 16 20 25 8
33 -44z m366 52 c0 -3 -20 -34 -45 -69 -76 -106 -165 -322 -165 -400 0 -18
-40 -65 -55 -65 -24 0 46 225 105 339 48 91 128 201 147 201 7 0 13 -3 13 -6z
m-417 -43 c3 -15 19 -41 35 -56 26 -24 29 -33 24 -69 -2 -23 -6 -42 -7 -44 -1
-2 -43 5 -93 14 -79 14 -91 19 -94 38 -6 30 -28 -48 -28 -97 0 -30 -5 -39 -24
-47 -13 -5 -40 -23 -59 -40 l-35 -31 -25 53 -24 53 26 9 c37 12 74 50 126 128
46 68 63 82 120 105 45 17 52 16 58 -16z m461 23 c12 -5 16 -21 16 -70 0 -57
-2 -64 -20 -64 -21 0 -23 -13 -10 -65 l8 -30 2 30 c1 17 2 36 1 43 -1 6 3 12
9 12 5 0 10 -21 10 -48 0 -40 -4 -50 -27 -67 -44 -32 -156 -127 -180 -152 -22
-23 -43 -30 -43 -15 0 4 10 39 23 76 l23 68 66 1 66 1 6 67 c3 37 8 76 11 86
3 10 -1 5 -9 -12 -8 -16 -15 -40 -16 -52 0 -20 -5 -23 -45 -23 -25 0 -45 3
-45 7 0 22 121 213 135 213 2 0 10 -3 19 -6z m-324 -32 c0 -5 -13 -21 -29 -36
l-28 -27 -7 23 c-11 42 -7 48 29 48 19 0 35 -4 35 -8z m-579 -102 c33 0 37 -4
52 -40 19 -49 15 -51 -73 -58 l-67 -4 -6 38 c-13 78 -11 84 25 73 18 -5 49 -9
69 -9z m417 -63 c70 -9 82 -13 82 -30 0 -20 -7 -20 -142 5 -48 9 -58 14 -58
30 0 15 4 18 18 13 9 -3 54 -11 100 -18z m230 -32 c9 -8 -13 -35 -25 -31 -8 3
-35 6 -59 6 -38 0 -44 3 -44 20 0 20 4 21 63 14 34 -4 63 -8 65 -9z m-198 -23
l45 -7 -4 -80 c-2 -44 -4 -81 -6 -83 -2 -2 -43 6 -93 18 -75 18 -91 25 -96 43
-8 28 43 74 91 83 18 3 33 11 33 16 0 7 -23 8 -65 4 -51 -5 -65 -4 -65 7 0 22
8 24 63 15 28 -5 72 -12 97 -16z m388 5 c3 -14 -6 -17 -58 -17 -57 0 -60 1
-50 20 8 15 19 19 58 16 35 -2 48 -7 50 -19z m-748 4 c0 -14 -58 -30 -115 -33
-38 -2 -50 1 -53 13 -2 12 4 15 25 12 16 -3 44 0 63 5 46 13 80 14 80 3z m15
-31 c9 -14 -56 -40 -115 -47 -37 -4 -48 -2 -53 11 -5 13 2 16 41 16 26 1 61 7
77 15 38 17 42 17 50 5z m522 -4 c2 -1 -6 -28 -17 -59 -11 -31 -20 -66 -20
-77 0 -17 -7 -20 -40 -20 -40 0 -40 0 -40 39 0 21 3 59 6 85 l7 47 51 -6 c28
-4 52 -8 53 -9z m-503 -35 c7 -11 -79 -46 -106 -44 -11 1 -22 -7 -26 -18 -7
-18 -9 -17 -25 11 l-18 30 43 1 c24 0 59 7 78 14 44 17 47 17 54 6z m940 -33
c3 -17 4 -33 1 -36 -3 -3 -41 -7 -86 -8 -58 -2 -86 -7 -99 -19 -11 -10 -31
-15 -52 -13 -33 3 -32 3 32 37 52 27 160 66 191 70 4 1 9 -13 13 -31z m-919
-8 c10 -16 -32 -100 -49 -100 -8 0 -20 -2 -28 -5 -20 -7 -45 17 -52 53 -6 27
-5 32 11 33 10 0 34 6 53 13 45 17 57 18 65 6z m135 -15 c-8 -9 -8 -15 -2 -15
6 0 14 -25 17 -55 6 -42 3 -63 -10 -91 -12 -25 -15 -49 -11 -75 8 -51 -6 -50
-30 3 -26 57 -25 144 1 183 10 17 20 35 21 40 3 22 4 25 15 25 8 0 8 -5 -1
-15z m173 -70 c36 -6 37 -7 37 -50 0 -43 -1 -45 -29 -45 -27 0 -132 17 -136
23 -1 1 -5 25 -9 53 l-6 51 52 -13 c29 -7 70 -16 91 -19z m367 -9 c-89 -83
-146 -126 -169 -126 -20 0 -23 -2 -11 -10 11 -7 6 -10 -22 -10 -20 0 -40 5
-43 10 -3 6 3 10 14 10 10 0 21 3 23 8 5 11 124 101 155 117 16 8 37 15 48 15
17 0 17 -2 5 -14z m-283 -12 c-30 -16 -44 -14 -32 5 3 6 18 11 33 11 l27 -1
-28 -15z m-427 -34 c0 -36 -8 -37 -46 -7 l-29 22 35 6 c19 4 36 7 38 8 1 0 2
-12 2 -29z m464 5 c-4 -8 -1 -21 5 -29 14 -17 4 -26 -31 -26 -36 0 -46 24 -23
50 22 24 57 27 49 5z m-152 -55 c28 0 29 -1 14 -22 -9 -12 -16 -32 -16 -45 0
-20 -3 -21 -32 -12 -18 5 -44 9 -58 9 -43 0 -52 12 -39 49 11 33 13 33 57 27
25 -3 58 -6 74 -6z m127 -16 c2 -2 2 -6 -1 -9 -8 -9 -58 6 -58 16 0 8 48 2 59
-7z m-47 -27 c7 -8 20 -12 30 -9 10 2 25 2 33 -2 13 -5 9 -12 -18 -36 -19 -16
-42 -30 -51 -30 -9 0 -16 -6 -16 -14 0 -12 -20 -26 -36 -26 -6 0 -5 96 2 114
7 20 39 21 56 3z m-99 -54 c11 -3 17 -14 17 -34 0 -26 -3 -29 -32 -29 -44 0
-98 34 -98 60 0 19 4 21 48 15 26 -4 55 -9 65 -12z m485 -98 c-1 -26 7 -59 17
-78 24 -46 14 -80 -29 -101 -44 -21 -81 -25 -80 -8 1 6 2 53 3 102 1 64 5 90
14 90 6 0 23 9 37 20 35 28 38 26 38 -25z m-112 -182 c-3 -7 -17 -13 -31 -13
-15 0 -24 4 -21 9 3 5 8 43 10 86 4 59 9 80 23 90 17 13 18 8 21 -72 2 -48 1
-92 -2 -100z"/>
<path d="M1203 2189 c66 -16 115 -48 150 -99 9 -13 17 -20 17 -15 0 6 -11 27
-25 47 -29 42 -97 78 -146 77 l-34 -1 38 -9z"/>
<path d="M1220 2130 c46 -28 92 -58 102 -67 10 -9 18 -11 18 -5 0 15 -68 67
-127 97 -87 43 -82 28 7 -25z"/>
<path d="M961 2142 c-19 -9 -37 -24 -40 -32 -4 -13 -2 -13 12 -2 9 8 37 22 64
32 36 15 42 19 23 20 -14 0 -40 -8 -59 -18z"/>
<path d="M1120 2153 c0 -24 140 -128 162 -121 6 2 -10 17 -37 32 -26 16 -65
44 -86 63 -22 20 -39 31 -39 26z"/>
<path d="M953 2100 c-17 -10 -37 -28 -42 -39 -18 -33 -12 -34 14 -3 14 17 45
37 68 45 33 12 37 16 17 16 -14 1 -39 -8 -57 -19z"/>
<path d="M1100 2077 c0 -42 99 -118 152 -117 17 1 13 4 -16 15 -51 18 -85 44
-113 85 -14 20 -23 27 -23 17z"/>
<path d="M930 1960 c-12 -8 -11 -10 5 -10 11 0 31 -7 43 -16 27 -18 29 -4 4
19 -21 19 -31 21 -52 7z"/>
<path d="M1144 1912 c-12 -2 -30 -12 -40 -23 -18 -20 -6 -27 13 -8 16 16 48 3
36 -14 -6 -6 -13 -20 -16 -29 -5 -14 0 -17 23 -15 29 2 35 11 33 55 -1 8 5 11
14 8 9 -4 13 -1 11 6 -5 14 -44 25 -74 20z"/>
<path d="M1280 1885 c-19 -23 -21 -75 -4 -75 20 0 29 27 15 44 -10 11 -8 16 5
24 10 5 12 12 6 16 -5 3 -15 -1 -22 -9z"/>
<path d="M985 1796 c-17 -12 -14 -36 4 -36 8 0 23 41 17 47 -1 2 -11 -3 -21
-11z"/>
<path d="M1124 1760 c-5 -5 -33 -11 -62 -12 -28 -2 -52 -7 -52 -13 1 -27 50
-62 50 -35 0 6 14 10 31 10 20 0 37 8 49 22 24 30 10 54 -16 28z"/>
<path d="M1299 1673 c13 -25 50 -47 96 -57 23 -4 18 0 -20 20 -27 15 -59 34
-69 43 -18 15 -18 15 -7 -6z"/>
<path d="M648 868 c-6 -31 -3 -36 36 -66 48 -37 63 -27 25 16 -19 21 -39 47
-45 58 -10 17 -11 16 -16 -8z"/>
<path d="M435 723 c28 -44 66 -82 115 -113 54 -34 162 -65 185 -52 11 6 -2 12
-46 20 -66 12 -142 53 -165 87 -13 20 -11 20 66 16 94 -4 138 8 75 20 -22 4
-67 8 -100 8 -40 1 -74 8 -100 21 -50 26 -51 25 -30 -7z"/>
<path d="M1164 727 c-33 -19 -87 -67 -81 -73 7 -8 105 57 111 73 6 15 -2 15
-30 0z"/>
<path d="M755 538 c-12 -36 -33 -144 -29 -150 6 -10 38 -10 47 -1 4 3 3 11 -2
17 -6 7 -4 34 4 70 8 33 12 63 9 68 -8 12 -24 10 -29 -4z"/>
<path d="M997 543 c-4 -3 -7 -19 -7 -34 0 -23 -5 -28 -27 -31 -35 -4 -59 -48
-44 -77 9 -15 20 -19 53 -16 62 4 62 4 48 20 -10 12 -10 25 -1 59 15 59 14 86
-2 86 -8 0 -17 -3 -20 -7z m-21 -129 c-3 -9 -10 -12 -16 -9 -14 9 -13 38 3 54
10 10 13 8 15 -9 2 -12 1 -28 -2 -36z"/>
<path d="M1690 531 c0 -34 -12 -51 -36 -51 -28 0 -46 -30 -42 -68 3 -24 7 -27
43 -28 60 -2 79 4 64 22 -9 11 -9 28 0 71 14 73 14 73 -9 73 -13 0 -20 -7 -20
-19z m-10 -73 c0 -25 -12 -58 -21 -58 -10 0 -12 53 -2 63 10 11 23 8 23 -5z"/>
<path d="M1834 543 c-29 -6 -58 -39 -51 -58 9 -22 29 -19 22 4 -11 35 69 58
94 27 14 -16 -1 -56 -21 -56 -7 0 -7 -4 -1 -12 6 -7 13 -29 17 -50 7 -37 25
-52 51 -41 14 5 14 7 1 22 -8 9 -19 29 -25 44 -9 24 -8 33 8 53 39 50 -10 84
-95 67z"/>
<path d="M2287 543 c-9 -16 -30 -153 -24 -159 3 -4 18 -3 32 0 22 6 25 9 15
22 -10 11 -10 27 -1 71 6 31 11 60 11 65 0 10 -27 11 -33 1z"/>
<path d="M176 526 c3 -8 -2 -42 -10 -76 -9 -34 -16 -64 -16 -66 0 -10 41 -3
44 9 2 6 10 42 18 80 l15 67 -28 0 c-20 0 -27 -4 -23 -14z"/>
<path d="M267 533 c-4 -3 -7 -14 -7 -24 0 -10 -9 -24 -20 -32 -17 -12 -19 -19
-11 -38 5 -13 12 -36 15 -50 6 -28 27 -42 50 -33 12 4 10 13 -10 41 -30 45
-30 58 1 95 14 16 25 34 25 39 0 10 -33 12 -43 2z"/>
<path d="M2195 530 c-4 -7 -3 -16 3 -22 14 -14 45 -2 40 15 -6 16 -34 21 -43
7z"/>
<path d="M2355 530 c-4 -7 -3 -16 3 -22 14 -14 45 -2 40 15 -6 16 -34 21 -43
7z"/>
<path d="M1823 463 c-6 -27 -15 -56 -19 -66 -6 -15 -3 -18 16 -15 19 2 26 13
36 58 17 71 17 70 -4 70 -12 0 -20 -13 -29 -47z"/>
<path d="M323 429 c-3 -43 0 -50 15 -47 11 2 19 15 22 37 3 19 11 36 18 39 9
3 11 -6 6 -37 -5 -31 -3 -41 7 -41 22 0 43 17 31 24 -7 4 -7 17 -2 36 10 36 8
37 -50 38 l-45 1 -2 -50z"/>
<path d="M460 459 c-15 -27 -9 -59 13 -73 20 -13 44 -1 61 30 6 10 16 22 21
26 6 5 5 8 -2 8 -7 0 -13 7 -13 15 0 24 -67 20 -80 -6z m57 -14 c12 -12 12
-19 3 -30 -16 -19 -30 -10 -30 21 0 28 6 30 27 9z"/>
<path d="M570 433 c5 -47 6 -48 40 -49 53 -2 69 5 85 36 19 36 19 60 1 60 -17
0 -29 -27 -16 -35 13 -8 1 -35 -15 -35 -10 0 -11 9 -5 35 7 30 5 35 -10 35
-14 0 -20 -9 -22 -37 -2 -21 -7 -37 -13 -35 -5 2 -9 18 -7 37 3 31 0 35 -21
35 -22 0 -23 -3 -17 -47z"/>
<path d="M814 455 c-31 -47 6 -90 60 -69 23 9 20 27 -3 19 -33 -10 -33 12 0
24 41 14 36 45 -8 49 -25 3 -35 -2 -49 -23z"/>
<path d="M1060 459 c-19 -34 -8 -63 25 -70 17 -4 24 -7 18 -8 -7 0 -12 -4 -12
-8 3 -20 -2 -27 -11 -13 -5 8 -12 11 -16 8 -10 -11 4 -38 19 -38 29 0 49 28
62 88 l13 62 -44 0 c-33 0 -46 -5 -54 -21z m54 -27 c-4 -12 -10 -22 -15 -22
-11 0 -12 44 -2 53 12 12 23 -8 17 -31z"/>
<path d="M1185 456 c-19 -29 -17 -55 6 -69 19 -12 69 -2 69 14 0 6 -9 8 -19 4
-33 -10 -33 12 0 24 41 14 36 45 -8 49 -25 3 -35 -2 -48 -22z"/>
<path d="M1350 449 c-18 -41 -3 -64 41 -65 53 -2 72 5 59 21 -7 9 -9 27 -5 45
7 30 6 30 -38 30 -40 0 -46 -3 -57 -31z m60 -6 c0 -10 -4 -25 -10 -33 -8 -12
-10 -12 -16 3 -7 20 1 47 16 47 5 0 10 -8 10 -17z"/>
<path d="M1484 452 c0 -15 -2 -36 -5 -47 -2 -12 2 -20 12 -23 12 -2 18 7 23
32 6 33 22 54 32 43 2 -2 0 -17 -6 -32 -13 -34 -1 -50 30 -40 15 5 19 10 12
17 -6 6 -8 25 -5 43 l5 33 -48 0 c-46 1 -49 -1 -50 -26z"/>
<path d="M1974 455 c-31 -47 6 -90 60 -69 9 3 16 11 16 16 0 6 -7 7 -16 4 -31
-12 -36 7 -5 20 43 18 39 48 -6 52 -25 3 -35 -2 -49 -23z"/>
<path d="M2090 462 c0 -10 7 -28 16 -40 8 -12 11 -22 5 -22 -5 0 -13 5 -17 11
-4 7 -10 7 -16 1 -15 -15 -1 -32 25 -32 36 0 50 15 43 43 -3 14 -1 29 4 32 18
11 0 25 -31 25 -21 0 -29 -5 -29 -18z"/>
<path d="M2182 429 c-3 -47 -1 -50 19 -47 17 2 21 11 24 51 2 42 1 47 -19 47
-18 0 -21 -7 -24 -51z"/>
<path d="M2342 429 c-3 -47 -1 -50 19 -47 17 2 21 11 24 51 2 42 1 47 -19 47
-18 0 -21 -7 -24 -51z"/>
<path d="M2433 468 c-41 -53 -9 -105 51 -82 9 3 16 11 16 16 0 6 -7 7 -16 4
-31 -12 -36 7 -5 20 22 9 31 19 29 31 -4 22 -60 30 -75 11z"/>
<path d="M2533 429 c-1 -42 1 -50 15 -47 11 2 19 16 22 37 3 19 11 36 18 39 9
3 11 -6 6 -38 -6 -39 -6 -42 16 -38 20 3 23 9 24 48 l1 45 -50 2 -50 2 -2 -50z"/>
<path d="M2677 462 c-45 -50 7 -108 59 -67 18 15 18 16 -6 13 -21 -3 -26 2
-28 25 -3 26 11 37 23 17 10 -17 25 -11 25 10 0 26 -50 28 -73 2z"/>
<path d="M2780 461 c-31 -59 16 -105 66 -65 18 15 18 15 -8 9 -33 -7 -38 11
-5 21 48 15 42 54 -9 54 -23 0 -37 -6 -44 -19z"/>
<path d="M1102 248 c-20 -20 -13 -30 17 -23 46 10 45 -9 -5 -58 -25 -25 -41
-48 -35 -51 5 -4 12 -2 16 4 10 16 22 12 28 -10 7 -28 72 -28 87 -1 13 25 4
48 -21 56 -10 4 -19 10 -19 14 0 14 25 31 46 31 28 0 39 16 24 35 -9 11 -17
11 -36 3 -18 -8 -31 -8 -49 0 -32 15 -38 15 -53 0z m88 -119 c0 -10 -6 -19
-14 -19 -15 0 -29 27 -21 40 9 15 35 -1 35 -21z"/>
<path d="M293 238 c-31 -15 -29 -30 2 -22 22 5 25 3 25 -18 0 -16 -9 -29 -25
-38 -45 -24 -43 -79 2 -80 23 0 52 43 59 88 10 68 -14 94 -63 70z m23 -104
c-3 -9 -6 -18 -6 -20 0 -2 -7 -4 -15 -4 -18 0 -19 12 -3 28 17 17 31 15 24 -4z"/>
<path d="M767 244 c-14 -15 -6 -34 14 -34 14 0 19 5 17 17 -3 18 -20 27 -31
17z"/>
<path d="M1678 239 c-24 -13 -23 -32 1 -24 36 11 34 -24 -4 -58 -39 -34 -43
-48 -20 -67 40 -34 91 39 83 120 -3 38 -27 49 -60 29z m18 -105 c-3 -9 -6 -18
-6 -20 0 -2 -7 -4 -15 -4 -18 0 -19 12 -3 28 17 17 31 15 24 -4z"/>
<path d="M2501 241 c-18 -12 -5 -31 20 -31 14 0 19 6 17 17 -4 20 -18 26 -37
14z"/>
<path d="M2410 206 c0 -8 -6 -17 -12 -20 -10 -4 -10 -7 -1 -12 8 -3 9 -15 2
-36 -10 -38 -5 -48 27 -48 23 0 34 15 15 22 -14 5 -1 58 14 58 10 0 11 5 2 25
-13 26 -47 35 -47 11z"/>
<path d="M390 162 c0 -15 -3 -37 -6 -49 -5 -19 -2 -23 15 -23 16 0 21 6 21 29
0 16 7 35 16 42 15 12 16 10 9 -29 -6 -40 -5 -42 17 -42 21 0 24 4 23 47 l0
48 -47 2 c-46 2 -48 1 -48 -25z"/>
<path d="M533 184 c-17 -8 -16 -29 2 -44 21 -18 19 -29 -5 -23 -14 4 -20 0
-20 -11 0 -11 9 -16 29 -16 36 0 47 15 47 60 -1 27 -5 35 -21 37 -11 1 -26 -1
-32 -3z"/>
<path d="M617 137 c-3 -29 -9 -63 -13 -75 -6 -21 -4 -23 17 -20 16 2 25 11 27
26 3 16 10 22 28 22 28 0 49 40 40 76 -5 19 -13 22 -50 22 l-44 0 -5 -51z m63
9 c0 -24 -16 -43 -26 -33 -8 7 7 57 17 57 5 0 9 -11 9 -24z"/>
<path d="M750 163 c0 -16 -3 -38 -6 -50 -5 -20 -2 -23 19 -23 26 0 45 16 27
22 -6 2 -7 14 -1 35 10 35 6 43 -21 43 -13 0 -18 -8 -18 -27z"/>
<path d="M833 167 c0 -12 -3 -34 -7 -49 -7 -25 -6 -28 18 -28 23 0 26 4 26 35
0 28 4 35 17 33 10 -2 19 4 20 12 3 12 -6 16 -36 17 -34 2 -39 -1 -38 -20z"/>
<path d="M934 165 c-23 -35 -12 -75 20 -75 31 0 56 10 56 21 0 5 -11 7 -25 3
-15 -4 -25 -2 -25 5 0 6 8 11 19 11 24 0 45 25 37 45 -9 25 -63 19 -82 -10z"/>
<path d="M1253 140 c-1 -42 2 -50 17 -50 14 0 20 9 22 33 2 24 8 32 23 32 11
0 21 7 23 16 2 13 -6 17 -40 17 l-43 1 -2 -49z"/>
<path d="M1360 178 c0 -7 -3 -30 -6 -50 l-6 -37 51 1 c49 0 72 10 52 22 -6 4
-6 19 0 39 5 17 9 33 9 34 0 2 -8 3 -19 3 -14 0 -20 -10 -25 -40 -3 -22 -11
-40 -17 -40 -8 0 -9 13 -5 40 6 36 4 40 -14 40 -11 0 -20 -6 -20 -12z"/>
<path d="M1494 165 c-23 -35 -12 -75 20 -75 31 0 56 10 56 21 0 5 -11 7 -25 3
-15 -4 -25 -2 -25 5 0 6 8 11 19 11 24 0 45 25 37 45 -9 25 -63 19 -82 -10z"/>
<path d="M1770 162 c0 -15 -3 -37 -6 -49 -5 -19 -2 -23 15 -23 15 0 21 6 21
23 0 13 7 32 15 43 15 18 15 16 10 -23 -6 -41 -6 -43 19 -43 13 0 28 5 31 10
3 6 1 10 -5 10 -6 0 -10 15 -8 37 l3 38 -47 2 c-46 2 -48 1 -48 -25z"/>
<path d="M1903 140 c-1 -42 2 -50 17 -50 14 0 20 9 22 38 2 20 7 35 13 32 6
-3 9 -20 7 -37 -3 -29 -1 -33 20 -33 22 0 23 4 23 47 l-1 48 -50 2 -49 2 -2
-49z"/>
<path d="M2046 168 c-29 -41 -14 -78 31 -78 15 0 28 10 38 29 8 16 20 31 27
34 8 3 6 6 -4 6 -10 1 -18 8 -18 16 0 24 -56 19 -74 -7z m52 -45 c-16 -20 -28
-15 -28 10 0 32 11 40 26 19 9 -12 9 -21 2 -29z"/>
<path d="M2155 143 c0 -41 3 -48 21 -51 39 -6 84 75 53 94 -16 10 -30 -18 -17
-34 9 -10 7 -17 -5 -30 -16 -15 -17 -13 -17 26 0 34 -4 42 -18 42 -14 0 -18
-9 -17 -47z"/>
<path d="M2270 171 c-5 -11 -10 -33 -10 -49 0 -29 1 -30 50 -30 28 0 53 4 56
9 3 5 0 9 -6 9 -8 0 -10 13 -5 40 l7 40 -41 0 c-30 0 -43 -5 -51 -19z m50 -25
c0 -24 -16 -43 -27 -32 -8 8 6 56 17 56 6 0 10 -11 10 -24z"/>
<path d="M2490 178 c0 -7 -3 -30 -6 -50 -6 -36 -5 -38 19 -38 14 0 29 5 32 10
3 6 1 10 -5 10 -6 0 -8 14 -4 40 6 36 5 40 -15 40 -11 0 -21 -6 -21 -12z"/>
<path d="M2575 174 c-10 -10 -15 -29 -13 -48 2 -26 8 -32 31 -34 22 -3 31 3
45 27 9 17 20 31 24 31 4 0 0 9 -9 20 -21 24 -56 26 -78 4z m55 -40 c0 -7 -5
-16 -11 -20 -17 -10 -32 12 -24 36 5 17 10 19 21 9 8 -6 14 -17 14 -25z"/>
<path d="M2680 162 c0 -15 -3 -37 -6 -49 -5 -19 -2 -23 15 -23 16 0 21 6 21
24 0 33 10 57 21 50 5 -3 7 -21 3 -40 -6 -31 -4 -34 18 -34 22 0 24 4 23 47
l0 48 -47 2 c-46 2 -48 1 -48 -25z"/>
<path d="M2810 110 c0 -13 7 -20 20 -20 13 0 20 7 20 20 0 13 -7 20 -20 20
-13 0 -20 -7 -20 -20z"/>
</g>
</svg>
