<?xml version="1.0" standalone="no"?>
<!DOCTYPE svg PUBLIC "-//W3C//DTD SVG 20010904//EN"
 "http://www.w3.org/TR/2001/REC-SVG-20010904/DTD/svg10.dtd">
<svg version="1.0" xmlns="http://www.w3.org/2000/svg"
 width="300.000000pt" height="227.000000pt" viewBox="0 0 300.000000 227.000000"
 preserveAspectRatio="xMidYMid meet">
<metadata>
Created by potrace 1.10, written by Peter Selinger 2001-2011
</metadata>
<g transform="translate(0.000000,227.000000) scale(0.100000,-0.100000)"
fill="#000000" stroke="none">
<path d="M0 1135 l0 -1135 1500 0 1500 0 0 1135 0 1135 -1500 0 -1500 0 0
-1135z m1292 1088 c53 -21 103 -83 124 -154 l18 -59 215 0 c126 0 211 -4 206
-9 -6 -5 -37 -19 -70 -30 -110 -40 -104 -24 -107 -274 -2 -119 -1 -216 2 -214
3 1 96 95 208 208 239 243 244 254 134 289 -24 7 -45 17 -48 22 -3 4 99 8 227
8 137 0 229 -4 224 -9 -6 -5 -38 -19 -71 -31 -58 -21 -77 -37 -333 -294 l-270
-272 64 -64 c36 -36 65 -67 65 -70 0 -3 -20 -4 -45 -2 -25 2 -83 -1 -130 -8
-85 -12 -85 -12 -79 -39 4 -14 9 -28 11 -31 2 -3 68 -3 146 -1 127 2 279 -12
360 -35 38 -11 13 -19 -53 -16 -38 2 -70 0 -70 -4 0 -4 111 -118 246 -255 231
-232 250 -249 308 -270 33 -12 65 -26 70 -30 5 -5 -145 -8 -335 -8 -303 0
-342 2 -325 15 11 7 24 14 29 14 5 0 24 7 43 16 65 31 54 49 -153 256 -103
104 -196 188 -205 188 -17 0 -18 -16 -18 -195 0 -225 -3 -218 106 -257 35 -13
64 -26 64 -30 0 -4 -129 -7 -287 -8 -202 0 -284 3 -277 10 7 7 92 11 239 11
125 0 225 3 221 6 -3 3 -15 11 -27 17 -53 26 -58 47 -61 249 -3 179 -2 190 17
203 11 8 29 13 40 10 11 -3 50 4 85 15 l65 20 158 -163 c245 -253 270 -284
271 -324 l1 -35 130 2 c112 1 140 7 87 21 -7 2 -81 71 -164 155 -83 84 -156
149 -162 146 -6 -3 -8 -3 -4 2 6 7 -33 53 -138 159 -17 17 -34 43 -37 58 -7
25 -11 27 -84 33 -92 9 -302 -2 -320 -16 -11 -9 -73 -13 -153 -10 -14 0 -30
-6 -36 -14 -6 -8 -14 -15 -18 -15 -4 0 -28 -20 -54 -44 -102 -95 -116 -105
-156 -111 -39 -7 -102 -45 -119 -72 -4 -7 -15 -13 -23 -13 -8 0 -17 -6 -20
-14 -7 -18 -88 -28 -133 -16 -91 25 -159 134 -147 238 7 59 16 79 63 136 18
22 31 41 30 43 -7 6 -69 -30 -74 -43 -3 -8 -9 -12 -13 -9 -10 6 -65 -63 -57
-71 3 -4 0 -13 -8 -21 -8 -8 -15 -23 -15 -33 0 -30 -22 -70 -38 -70 -20 0 -54
45 -74 99 l-17 46 -2 -85 -2 -85 -11 60 -12 60 -22 -61 c-43 -119 -20 -210 70
-277 37 -27 45 -37 30 -37 -32 0 -116 83 -132 129 -20 60 -9 164 25 232 l28
57 -22 30 c-28 40 -59 130 -66 195 -4 29 -8 62 -11 75 -4 20 -2 23 16 17 21
-7 21 -6 7 22 -17 34 -21 111 -6 129 6 7 35 18 64 25 51 11 54 13 49 39 -6 28
19 64 40 57 30 -10 48 -237 21 -267 -13 -15 -13 -23 4 -74 25 -75 32 -81 67
-63 37 19 71 56 122 133 47 70 71 89 139 105 26 7 57 17 68 23 11 5 23 9 28 8
21 -6 3 19 -27 36 -61 36 -86 87 -97 198 -6 61 -16 105 -25 115 -19 21 -28 78
-20 122 8 45 79 125 131 148 53 24 239 25 297 2z m162 -1108 c-22 -17 -34 -19
-34 -6 0 5 8 12 18 14 32 9 36 7 16 -8z m21 -185 c3 -5 -1 -22 -8 -37 -28 -54
-30 -101 -7 -145 34 -66 13 -114 -60 -136 -55 -16 -212 -15 -278 3 -59 15 -59
15 -118 -14 -85 -41 -136 -50 -251 -46 -91 3 -110 7 -168 36 -61 30 -129 90
-154 138 -14 26 -14 26 34 1 26 -13 60 -20 100 -21 80 0 146 -13 122 -24 -19
-8 -149 -1 -187 10 -25 8 -25 8 5 -24 17 -18 54 -46 84 -63 50 -29 63 -32 163
-35 116 -4 162 4 242 43 27 13 55 24 60 24 6 0 30 18 53 39 23 21 44 37 46 35
2 -3 10 2 17 11 14 17 30 20 30 6 0 -5 -27 -27 -59 -49 l-59 -39 55 -13 c30
-6 56 -10 59 -8 2 3 7 32 10 65 6 59 18 93 28 83 2 -3 -1 -38 -8 -78 -11 -65
-11 -72 4 -72 14 0 18 15 24 80 8 97 10 104 43 121 15 8 50 38 79 67 50 49 85
64 99 42z m-337 -25 c-20 -14 -43 -25 -50 -25 -17 0 53 49 72 50 8 0 -2 -11
-22 -25z m-424 -96 c34 -32 33 -43 -1 -25 -51 27 -107 85 -68 70 13 -5 14 -2
5 21 -18 48 -10 51 15 4 13 -25 35 -57 49 -70z m766 -6 c0 -41 -3 -54 -10 -43
-11 17 -13 61 -4 84 11 28 14 18 14 -41z m-696 -261 c2 -4 -1 -35 -8 -68 -11
-54 -11 -62 3 -71 14 -9 12 -12 -12 -18 -16 -4 -32 -4 -37 1 -7 8 9 105 25
152 5 13 21 16 29 4z m246 -13 c0 -11 -5 -40 -11 -65 -9 -33 -8 -48 0 -58 10
-11 8 -15 -6 -19 -35 -9 -86 -2 -96 14 -16 25 12 73 46 77 22 3 27 8 27 31 0
15 3 31 7 34 14 14 33 6 33 -14z m700 13 c0 -5 -5 -34 -11 -65 -9 -43 -9 -60
0 -71 15 -18 -4 -24 -64 -22 -36 1 -40 4 -43 28 -4 38 14 68 42 68 24 0 36 17
36 51 0 12 7 19 20 19 11 0 20 -4 20 -8z m207 -18 c14 -19 2 -51 -21 -60 -11
-4 -10 -14 5 -45 11 -21 24 -39 29 -39 6 0 10 -4 10 -10 0 -5 -13 -10 -29 -10
-25 0 -30 5 -36 33 -4 17 -12 38 -18 46 -8 10 -7 16 4 25 37 28 27 66 -19 66
-38 0 -64 -18 -57 -41 7 -23 -13 -26 -22 -4 -7 19 22 52 51 59 36 7 90 -3 103
-20z m383 14 c0 -7 -6 -39 -14 -70 -12 -51 -11 -58 3 -63 13 -5 14 -7 1 -15
-8 -6 -23 -10 -32 -10 -22 0 -22 17 -6 105 10 51 16 65 30 65 10 0 18 -6 18
-12z m-2105 -45 c-7 -27 -15 -61 -17 -78 -2 -23 -9 -31 -27 -33 -17 -3 -22 0
-19 10 13 33 29 129 23 138 -4 6 6 10 24 10 l30 0 -14 -47z m95 37 c0 -5 -13
-24 -29 -42 -28 -32 -28 -35 -14 -63 9 -17 22 -38 31 -47 14 -17 13 -18 -16
-18 -26 0 -33 5 -38 28 -3 15 -10 38 -15 51 -8 19 -6 26 11 38 11 8 20 22 20
32 0 10 3 21 7 24 10 11 43 8 43 -3z m1928 -7 c5 -17 -26 -29 -40 -15 -6 6 -7
15 -3 22 9 14 37 9 43 -7z m157 -3 c0 -8 -10 -16 -22 -18 -22 -3 -32 16 -16
32 12 11 38 2 38 -14z m-525 -17 c-1 -5 -7 -33 -14 -63 -10 -45 -17 -56 -36
-58 -19 -3 -22 0 -16 15 4 10 13 39 19 66 9 34 17 47 29 47 10 0 18 -3 18 -7z
m-1445 -33 c3 -5 1 -20 -4 -33 -7 -18 -7 -27 2 -31 14 -5 -10 -26 -32 -26 -10
0 -12 10 -8 41 4 28 2 39 -6 36 -7 -2 -14 -19 -17 -38 -3 -22 -11 -35 -22 -37
-15 -3 -18 4 -15 47 l2 50 48 -1 c26 0 49 -4 52 -8z m115 -5 c0 -8 6 -15 13
-15 7 0 8 -3 2 -8 -5 -4 -15 -16 -21 -26 -17 -31 -41 -43 -61 -30 -22 14 -28
46 -13 73 13 26 80 30 80 6z m66 -26 c-5 -31 -3 -40 6 -37 7 3 14 21 16 41 2
28 8 37 22 37 15 0 17 -5 10 -35 -9 -40 3 -56 20 -26 6 12 6 22 0 26 -13 8 -1
35 16 35 18 0 18 -24 -1 -60 -16 -31 -32 -38 -85 -36 -34 1 -35 2 -40 49 -6
45 -5 47 18 47 23 0 24 -2 18 -41z m292 18 c2 -12 -7 -22 -29 -31 -31 -13 -26
-32 5 -20 9 3 16 1 16 -5 0 -13 -44 -25 -65 -18 -24 10 -30 55 -9 78 23 25 77
23 82 -4z m251 -24 c-5 -27 -14 -58 -21 -70 -12 -24 -41 -38 -58 -28 -13 8
-13 35 0 35 6 0 10 -4 10 -10 0 -5 5 -10 11 -10 6 0 9 7 5 15 -3 8 0 16 7 16
7 1 -1 4 -18 8 -33 7 -44 36 -25 70 8 16 21 21 54 21 l43 0 -8 -47z m119 24
c3 -13 -6 -22 -27 -30 -37 -14 -42 -32 -6 -23 14 4 25 2 25 -3 0 -16 -59 -24
-75 -11 -20 17 -19 49 2 72 22 24 76 21 81 -5z m177 -7 c-4 -18 -2 -36 5 -45
13 -16 -6 -23 -59 -21 -44 1 -59 24 -41 65 11 28 17 31 57 31 44 0 45 0 38
-30z m132 -5 c-3 -18 -1 -37 5 -43 7 -7 3 -12 -12 -17 -31 -10 -43 6 -30 40 6
15 8 30 5 33 -10 10 -24 -12 -28 -43 -3 -22 -10 -31 -26 -33 -19 -3 -21 0 -14
25 4 15 7 38 8 50 0 19 5 22 49 21 l48 0 -5 -33z m481 12 c2 -12 -7 -22 -29
-31 -31 -13 -26 -32 5 -20 9 3 16 2 16 -4 0 -5 -7 -13 -16 -16 -32 -12 -55 -6
-66 19 -17 38 13 77 55 73 21 -2 33 -9 35 -21z m97 12 c4 -6 4 -13 0 -17 -3
-3 -10 0 -15 8 -5 8 -12 11 -16 8 -3 -4 1 -14 10 -23 22 -22 20 -52 -4 -60
-23 -7 -60 2 -60 15 0 14 18 21 25 10 3 -5 11 -10 16 -10 6 0 1 12 -10 26 -11
14 -17 32 -14 40 6 16 59 19 68 3z m70 -23 c-5 -22 -3 -36 5 -41 15 -9 -6 -25
-33 -25 -15 0 -17 8 -15 50 3 45 5 50 26 50 21 0 22 -3 17 -34z m165 25 c0 -5
-4 -21 -9 -34 -8 -20 -6 -27 7 -32 14 -5 14 -7 2 -15 -8 -6 -23 -10 -33 -10
-15 0 -17 8 -15 50 3 44 6 50 26 50 12 0 22 -4 22 -9z m118 -14 c2 -12 -7 -22
-29 -31 -31 -13 -26 -32 5 -20 9 3 16 2 16 -4 0 -5 -7 -13 -16 -16 -32 -12
-55 -6 -66 19 -17 38 13 77 55 73 21 -2 33 -9 35 -21z m127 13 c3 -5 1 -20 -4
-33 -7 -18 -7 -27 1 -29 18 -6 -1 -28 -24 -28 -18 0 -20 4 -14 41 5 31 3 40
-6 37 -7 -3 -14 -21 -16 -41 -2 -28 -8 -37 -22 -37 -16 0 -18 7 -17 49 l2 50
48 -1 c26 0 49 -4 52 -8z m121 -1 c3 -6 1 -16 -6 -22 -9 -9 -15 -7 -25 7 -13
17 -15 17 -21 3 -11 -30 0 -52 26 -50 24 3 24 2 6 -12 -53 -40 -104 18 -59 67
18 20 68 24 79 7z m108 -5 c4 -10 -4 -21 -24 -32 -37 -21 -39 -34 -2 -27 26 6
26 6 8 -9 -50 -40 -97 6 -66 65 13 24 75 27 84 3z m-1664 -218 c33 -1 45 -5
45 -16 0 -8 -11 -17 -25 -18 -46 -7 -65 -36 -31 -47 25 -8 34 -32 20 -56 -16
-31 -81 -23 -89 11 -6 23 -7 24 -17 6 -6 -11 -15 -16 -22 -11 -8 5 2 21 33 52
50 49 51 68 4 58 -28 -7 -29 -6 -18 15 9 17 17 20 33 15 12 -5 42 -8 67 -9z
m-852 -8 c29 -29 0 -141 -39 -153 -22 -7 -49 10 -49 30 0 7 14 25 30 38 17 14
30 35 30 47 0 19 -4 21 -25 16 -31 -8 -33 7 -2 22 30 14 41 14 55 0z m450 -11
c2 -12 -3 -17 -17 -17 -12 0 -21 6 -21 13 0 31 32 34 38 4z m940 -17 c8 -80
-43 -154 -83 -120 -23 19 -18 34 21 69 38 35 40 56 5 55 -28 -1 -27 14 2 26
37 15 52 8 55 -30z m800 17 c2 -11 -3 -17 -17 -17 -25 0 -38 19 -20 31 19 12
33 6 37 -14z m-88 -22 c0 -8 5 -15 10 -15 6 0 10 -4 10 -10 0 -5 -7 -10 -15
-10 -8 0 -15 -6 -15 -14 0 -8 -3 -21 -6 -30 -4 -11 -1 -16 11 -16 9 0 13 -4
10 -10 -8 -13 -52 -13 -59 -1 -4 5 -1 22 4 37 8 21 8 30 -2 36 -10 8 -10 11 0
15 6 2 12 11 12 19 0 8 9 14 20 14 11 0 20 -7 20 -15z m-1968 -58 c-2 -22 2
-37 8 -37 6 0 8 -4 5 -10 -3 -5 -18 -10 -31 -10 -24 0 -25 2 -19 40 4 26 3 40
-4 40 -6 0 -14 -18 -17 -40 -5 -31 -11 -40 -26 -40 -16 0 -19 5 -14 23 3 12 6
34 6 49 0 26 2 27 48 25 l47 -2 -3 -38z m105 6 c-3 -49 -13 -63 -42 -63 -27 0
-40 14 -29 32 5 8 11 6 20 -6 6 -9 15 -13 18 -8 3 5 -3 17 -14 27 -34 31 -23
52 27 54 20 1 22 -3 20 -36z m129 13 c9 -36 -12 -76 -40 -76 -18 0 -25 -6 -28
-22 -2 -15 -11 -24 -25 -26 -21 -3 -22 -1 -15 30 4 18 7 52 7 75 l0 42 48 -1
c40 0 48 -3 53 -22z m78 15 c4 -5 1 -22 -5 -37 -7 -20 -7 -30 0 -32 19 -6 1
-22 -25 -22 -24 0 -25 2 -18 33 4 17 7 40 6 50 -1 18 32 24 42 8z m113 -11
c-1 -8 -10 -14 -20 -12 -16 3 -23 -18 -18 -55 1 -8 -9 -13 -25 -13 -24 0 -25
2 -18 28 4 15 7 37 7 49 -1 19 4 22 38 20 30 -1 39 -5 36 -17z m103 5 c16 -19
-3 -45 -31 -45 -11 0 -19 -5 -19 -11 0 -7 10 -9 25 -5 27 7 35 -8 9 -18 -36
-14 -64 -6 -70 19 -13 54 53 100 86 60z m328 -4 c-2 -9 -12 -16 -23 -16 -15 0
-21 -8 -23 -32 -2 -24 -8 -33 -22 -33 -15 0 -18 8 -17 49 l2 49 43 -1 c34 0
42 -4 40 -16z m62 5 c0 -8 -4 -26 -10 -40 -7 -21 -6 -26 5 -26 9 0 17 14 21
40 5 31 11 40 26 40 15 0 18 -5 14 -20 -3 -11 -9 -29 -12 -40 -3 -12 -1 -20 6
-20 6 0 9 -4 6 -9 -3 -5 -29 -9 -57 -9 l-51 -1 6 37 c3 20 6 43 6 50 0 6 9 12
20 12 11 0 20 -6 20 -14z m170 -1 c16 -19 -3 -45 -31 -45 -11 0 -19 -5 -19
-11 0 -7 10 -9 25 -5 27 7 35 -8 9 -18 -36 -14 -64 -6 -70 19 -13 54 53 100
86 60z m292 -28 c-2 -22 2 -37 8 -37 6 0 8 -4 5 -10 -3 -5 -18 -10 -31 -10
-25 0 -25 2 -19 41 9 52 -11 45 -21 -6 -5 -26 -11 -35 -26 -35 -14 0 -18 5
-14 16 3 9 6 31 6 49 l0 34 48 -2 47 -2 -3 -38z m144 32 c2 -4 -1 -20 -7 -35
-7 -20 -7 -30 0 -32 21 -7 11 -22 -15 -22 -25 0 -26 2 -20 41 5 31 3 40 -6 37
-7 -3 -14 -21 -16 -41 -2 -28 -8 -37 -22 -37 -15 0 -18 8 -17 49 l2 50 48 -1
c26 -1 50 -5 53 -9z m114 -4 c0 -8 8 -15 18 -16 10 0 12 -3 4 -6 -7 -3 -19
-18 -27 -34 -16 -31 -51 -39 -73 -17 -30 30 3 88 49 88 19 0 29 -5 29 -15z
m68 -25 c-4 -42 0 -48 19 -29 7 7 9 25 6 42 -5 23 -3 29 8 25 39 -13 -2 -102
-45 -96 -18 3 -21 10 -21 51 -1 39 2 47 18 47 16 0 19 -6 15 -40z m167 0 c-5
-27 -3 -40 5 -40 6 0 9 -4 6 -9 -3 -5 -28 -9 -56 -9 l-50 0 0 37 c0 47 14 61
63 61 l39 0 -7 -40z m171 0 c-4 -26 -2 -40 4 -40 6 0 8 -5 5 -10 -3 -6 -17
-10 -31 -10 -22 0 -24 3 -21 50 2 45 4 50 26 50 22 0 23 -3 17 -40z m127 20
c9 -11 13 -20 9 -20 -4 0 -15 -14 -24 -30 -32 -55 -99 -30 -76 29 17 45 61 55
91 21z m119 -23 c-2 -22 2 -37 8 -37 6 0 8 -5 5 -10 -3 -5 -18 -10 -31 -10
-24 0 -25 2 -19 40 4 24 3 40 -3 40 -12 0 -22 -24 -22 -56 0 -17 -6 -24 -19
-24 -17 0 -19 7 -18 50 l2 49 50 -2 50 -3 -3 -37z m76 -40 c2 -12 -3 -17 -17
-17 -15 0 -21 6 -21 21 0 25 33 22 38 -4z"/>
<path d="M1005 2206 c-73 -32 -125 -107 -125 -180 0 -55 13 -66 30 -25 17 39
65 75 113 84 27 5 37 12 37 26 0 11 5 19 10 19 6 0 10 -15 10 -33 0 -77 96
-156 189 -157 52 0 81 -27 81 -73 0 -22 -10 -40 -40 -67 -64 -59 -50 -86 15
-28 44 38 75 96 78 145 2 36 2 36 -58 54 -33 10 -79 23 -102 29 -49 12 -93 47
-124 96 -30 49 -16 54 16 6 15 -22 45 -53 67 -68 36 -25 46 -28 121 -25 45 1
83 3 84 5 2 1 -3 24 -11 50 -38 126 -166 191 -269 136 -38 -21 -50 -17 -19 6
15 12 12 13 -28 13 -25 0 -58 -6 -75 -13z m55 -15 c-19 -10 -80 -22 -80 -15 0
8 44 23 70 23 19 0 21 -2 10 -8z m224 -15 c44 -26 79 -67 90 -106 7 -23 6 -22
-12 5 -44 67 -91 100 -165 115 l-42 8 44 1 c30 1 57 -7 85 -23z m-70 -22 c56
-28 136 -90 136 -105 0 -5 -28 12 -62 37 -35 26 -82 55 -105 66 -24 10 -43 21
-43 23 0 11 25 4 74 -21z m30 -88 c37 -22 52 -36 40 -36 -35 0 -144 82 -166
125 -6 11 6 4 28 -17 22 -20 66 -53 98 -72z m-242 75 c-28 -10 -61 -26 -72
-36 -11 -10 -20 -14 -20 -8 0 27 65 62 115 62 25 0 21 -3 -23 -18z m-1 -34
c-19 -6 -49 -26 -68 -44 -34 -35 -40 -35 -22 -2 14 27 69 59 99 58 22 -1 21
-2 -9 -12z m194 -114 c22 -13 54 -23 70 -24 19 -1 23 -3 12 -6 -57 -15 -146
39 -173 104 -21 50 -17 49 19 -3 17 -27 50 -59 72 -71z"/>
<path d="M1016 2064 c-67 -24 -109 -76 -99 -125 4 -21 9 -25 29 -21 45 8 88
-57 48 -72 -9 -3 -25 -6 -37 -6 -21 0 -21 1 3 20 19 14 22 22 14 30 -7 7 -20
10 -30 8 -15 -3 -19 -12 -17 -43 7 -108 14 -126 61 -177 45 -49 47 -50 91 -43
25 4 63 16 83 26 38 20 98 90 98 116 0 7 6 13 14 13 22 0 56 49 56 80 0 34
-25 59 -42 42 -17 -17 -33 -15 -19 2 10 12 3 15 -41 20 -78 9 -100 9 -125 1
-15 -5 -23 -3 -23 4 0 6 11 13 25 17 28 7 33 19 11 27 -7 3 -23 26 -36 51 -12
25 -23 46 -23 45 -1 0 -20 -7 -41 -15z m-34 -111 c25 -23 23 -37 -4 -19 -12 9
-31 16 -41 16 -10 0 -15 5 -12 10 9 15 36 12 57 -7z m236 -64 c5 -12 3 -12
-11 0 -19 15 -23 1 -5 -17 9 -9 9 -12 -1 -12 -8 0 -11 -7 -9 -18 4 -15 -1 -18
-27 -19 -24 -1 -32 3 -31 16 0 9 8 21 16 28 13 10 13 12 -3 19 -10 3 -23 2
-30 -5 -19 -19 -31 -12 -13 8 29 32 104 32 114 0z m80 -7 c-21 -4 -23 -13 -7
-29 7 -7 9 -19 6 -27 -7 -17 -37 -22 -37 -6 0 6 5 10 10 10 7 0 7 6 0 19 -12
23 14 56 33 44 8 -5 6 -9 -5 -11z m-288 -81 c0 -6 -5 -13 -10 -16 -6 -4 -8
-11 -5 -16 4 -5 2 -9 -4 -9 -17 0 -22 19 -9 34 15 17 28 20 28 7z m143 -37
c11 -11 -33 -48 -61 -52 -15 -2 -28 -7 -30 -13 -6 -14 -24 -11 -38 9 -23 30
-16 37 44 40 31 2 59 7 60 13 4 10 16 12 25 3z m-58 -94 c-3 -5 -15 -10 -26
-10 -11 0 -17 5 -14 10 3 6 15 10 26 10 11 0 17 -4 14 -10z"/>
<path d="M1065 1730 l-30 -8 30 -1 c17 0 37 4 45 9 13 9 13 10 0 9 -8 -1 -28
-5 -45 -9z"/>
<path d="M2133 1993 c-62 -4 -62 -4 -43 -23 47 -47 30 -72 -227 -332 -42 -43
-73 -78 -70 -78 3 0 -5 -11 -18 -25 -14 -13 -25 -28 -25 -33 0 -5 -11 -14 -24
-21 -13 -8 -29 -23 -34 -35 l-11 -21 0 21 c-1 12 -8 27 -17 34 -13 12 -15 43
-12 226 3 209 3 213 27 238 14 14 22 28 20 30 -4 4 -259 10 -281 7 -4 -1 9
-16 29 -34 l36 -33 -1 -305 -1 -304 -28 -23 c-15 -12 -43 -35 -62 -50 -69 -55
-111 -95 -111 -105 0 -5 8 -4 18 4 31 25 193 109 210 109 6 0 23 5 39 11 15 7
37 13 48 14 11 1 44 8 74 14 29 6 77 12 105 12 28 1 43 3 33 6 -9 2 -15 9 -11
14 3 6 -5 20 -19 33 -57 53 -56 57 35 153 85 89 187 194 332 340 98 100 93
111 -8 14 -105 -103 -179 -172 -217 -206 -28 -25 -30 -26 -14 -5 24 30 2 7
173 181 128 131 166 183 130 177 -7 -1 -41 -3 -75 -5z"/>
<path d="M2232 1955 c-6 -14 -8 -25 -4 -25 5 0 19 11 32 25 22 24 23 25 3 25
-11 0 -25 -10 -31 -25z"/>
<path d="M1422 1901 c-1 -41 -35 -103 -74 -136 l-32 -27 36 -32 c20 -17 52
-41 72 -53 l36 -22 0 130 c0 120 -8 169 -29 169 -4 0 -8 -13 -9 -29z"/>
<path d="M1241 1704 c-17 -14 -31 -33 -31 -41 0 -12 3 -13 14 -4 11 9 18 6 34
-13 23 -30 65 -48 106 -48 16 1 42 -6 57 -14 37 -18 39 -18 39 9 0 17 -14 29
-56 52 -31 17 -67 42 -79 58 -29 34 -45 34 -84 1z m62 -74 c-7 -8 -43 41 -43
58 0 8 10 0 23 -19 13 -19 22 -36 20 -39z m77 6 c75 -34 74 -43 -1 -16 -52 19
-89 50 -89 73 0 6 6 2 14 -9 8 -11 42 -33 76 -48z"/>
<path d="M564 1706 c-4 -9 -4 -36 -1 -59 5 -38 4 -40 -8 -23 -20 26 -45 5 -45
-39 0 -38 8 -49 26 -34 7 6 18 8 24 4 15 -9 12 -35 -4 -35 -8 0 -22 -7 -31
-16 -9 -9 -19 -14 -22 -10 -4 3 2 13 13 21 17 13 15 14 -28 15 -53 0 -53 0
-36 -46 10 -29 18 -34 55 -40 55 -8 66 -3 87 40 21 44 12 84 -21 97 -32 12
-33 12 -33 -8 0 -13 -3 -14 -11 -6 -7 7 -9 19 -5 28 6 16 16 15 64 -3 11 -4
12 7 7 54 -8 64 -20 88 -31 60z"/>
<path d="M1175 1650 c-3 -5 -30 -17 -59 -25 -39 -11 -56 -22 -65 -41 -16 -35
-7 -44 44 -44 42 0 47 3 79 47 19 26 32 53 29 60 -6 15 -19 17 -28 3z"/>
<path d="M1205 1598 c-15 -23 -49 -64 -74 -91 -51 -56 -51 -56 36 -8 53 28 65
40 79 76 15 41 13 65 -5 65 -5 0 -21 -19 -36 -42z"/>
<path d="M481 1616 c-14 -16 -11 -71 3 -71 4 0 10 19 12 43 4 46 2 49 -15 28z"/>
<path d="M435 1600 c-7 -12 5 -60 15 -60 4 0 8 16 7 35 -1 34 -10 45 -22 25z"/>
<path d="M1255 1558 c-18 -38 -30 -48 -102 -83 -74 -36 -83 -43 -89 -73 -4
-19 -3 -37 2 -42 5 -4 36 -10 70 -13 l61 -5 29 56 c16 31 50 85 75 119 46 60
46 61 24 67 -13 3 -29 8 -37 11 -8 3 -20 -10 -33 -37z"/>
<path d="M1000 1565 c-9 -11 -7 -22 11 -55 25 -45 44 -54 29 -14 -6 14 -10 39
-10 55 0 32 -11 37 -30 14z"/>
<path d="M1323 1513 c-67 -89 -124 -204 -163 -332 -26 -85 -30 -105 -19 -112
29 -18 44 -2 52 57 17 106 90 279 162 379 49 69 51 75 32 75 -7 0 -36 -30 -64
-67z"/>
<path d="M916 1544 c-51 -18 -58 -25 -107 -98 -57 -84 -97 -124 -131 -131 -16
-4 -28 -10 -26 -13 2 -4 14 -29 26 -55 l23 -48 36 31 c19 17 46 36 59 42 19 9
24 19 24 47 0 44 18 111 30 111 4 0 6 -9 3 -20 -3 -11 -3 -20 0 -20 2 0 44 -7
92 -15 48 -9 89 -14 90 -13 1 2 5 21 8 43 6 36 3 44 -24 69 -16 16 -33 42 -36
57 -6 32 -12 34 -67 13z"/>
<path d="M1392 1523 c-38 -48 -88 -131 -97 -160 -6 -22 -3 -23 39 -23 41 0 46
3 46 23 1 12 8 36 16 52 8 17 12 22 9 12 -3 -10 -8 -50 -11 -88 -7 -72 0 -84
29 -51 13 14 14 25 7 57 -14 61 -12 75 10 75 18 0 20 7 20 64 0 49 -4 65 -16
70 -22 8 -19 10 -52 -31z"/>
<path d="M1056 1492 c4 -20 7 -37 8 -38 0 0 16 16 34 37 l32 37 -40 0 -41 1 7
-37z"/>
<path d="M441 1393 c4 -27 8 -54 8 -62 1 -11 16 -13 70 -9 88 7 92 9 76 55
-12 36 -16 38 -67 44 -29 3 -62 9 -74 13 -20 6 -21 4 -13 -41z"/>
<path d="M1444 1365 c5 -64 16 -69 16 -7 0 29 -4 52 -10 52 -5 0 -8 -20 -6
-45z"/>
<path d="M840 1363 c0 -16 11 -21 63 -31 137 -25 137 -25 137 -4 0 16 -13 20
-82 29 -46 7 -91 15 -100 18 -13 5 -18 2 -18 -12z"/>
<path d="M1060 1320 c0 -17 6 -20 44 -20 24 0 51 -3 59 -6 12 -4 34 23 25 31
-2 1 -31 5 -65 9 -59 7 -63 6 -63 -14z"/>
<path d="M835 1322 c-3 -3 -5 -11 -5 -19 0 -11 13 -12 64 -7 42 4 66 3 70 -5
5 -7 -3 -11 -21 -11 -45 0 -103 -45 -103 -79 0 -26 5 -30 58 -44 31 -8 74 -18
95 -22 l37 -6 0 48 c0 26 3 65 6 86 6 36 6 37 -22 37 -16 0 -61 6 -101 14 -40
7 -75 11 -78 8z"/>
<path d="M1269 1309 c-9 -18 -5 -19 51 -19 51 0 60 3 60 18 0 27 -96 28 -111
1z"/>
<path d="M550 1308 c-19 -5 -47 -8 -63 -5 -21 3 -27 0 -25 -12 3 -12 15 -15
53 -13 57 3 115 19 115 33 0 11 -34 10 -80 -3z"/>
<path d="M595 1275 c-16 -8 -51 -14 -77 -15 -39 0 -46 -3 -41 -16 5 -13 16
-15 53 -11 59 7 124 33 115 47 -8 12 -12 12 -50 -5z"/>
<path d="M1057 1253 c-4 -21 -7 -59 -7 -85 l0 -48 40 0 c32 0 40 4 40 18 0 11
9 45 20 77 11 32 19 59 18 61 -2 1 -26 5 -54 9 l-51 6 -6 -38z"/>
<path d="M1255 1270 c-12 -22 -46 -142 -41 -147 3 -3 22 9 43 27 78 68 123
111 123 118 0 8 -120 10 -125 2z"/>
<path d="M610 1234 c-19 -7 -54 -13 -77 -13 -45 -1 -53 -10 -28 -31 8 -7 12
-16 9 -21 -3 -5 -1 -9 4 -9 5 0 12 9 15 19 3 12 13 19 24 18 28 -2 114 33 107
44 -6 11 -9 10 -54 -7z"/>
<path d="M1535 1224 c-38 -13 -99 -38 -133 -56 -56 -29 -60 -33 -38 -36 15 -2
41 6 59 17 20 12 42 18 55 14 12 -3 46 -2 76 1 l54 7 -2 40 c0 21 -1 38 -1 38
0 -1 -31 -12 -70 -25z m-35 -44 c-20 -13 -33 -13 -25 0 3 6 14 10 23 10 15 0
15 -2 2 -10z"/>
<path d="M603 1192 c-48 -15 -52 -19 -46 -42 9 -38 22 -50 58 -50 29 0 36 5
55 45 33 67 23 74 -67 47z"/>
<path d="M805 1189 c-4 -6 -4 -13 -1 -16 3 -3 -3 -16 -13 -30 -29 -36 -35 -94
-17 -156 24 -81 42 -90 42 -21 -1 38 4 59 14 67 13 10 14 23 7 75 -5 34 -13
62 -19 62 -6 0 -5 6 2 15 8 9 9 15 2 15 -6 0 -14 -5 -17 -11z"/>
<path d="M856 1096 c4 -28 8 -52 9 -53 4 -6 143 -29 153 -25 7 2 12 23 12 47
0 43 -1 44 -37 50 -21 4 -62 12 -91 19 l-52 13 6 -51z"/>
<path d="M1249 1103 c-13 -16 -12 -17 4 -4 9 7 17 15 17 17 0 8 -8 3 -21 -13z"/>
<path d="M1326 1113 c-22 -6 -105 -65 -149 -107 -16 -15 -40 -26 -55 -26 -21
0 -24 -2 -12 -10 8 -5 31 -10 50 -10 26 0 31 3 20 10 -12 8 -10 10 9 10 14 0
54 26 102 67 44 36 79 68 79 70 0 4 -19 2 -44 -4z"/>
<path d="M1046 1095 c-7 -18 2 -18 34 0 l25 14 -26 1 c-15 0 -29 -7 -33 -15z"/>
<path d="M612 1080 l-34 -5 31 -23 c26 -19 32 -20 37 -8 11 30 0 41 -34 36z"/>
<path d="M1815 1080 c-11 -5 -28 -11 -39 -14 -18 -6 23 -55 190 -220 22 -23
64 -67 93 -100 54 -60 60 -83 37 -138 -7 -16 0 -18 82 -16 50 0 96 4 103 8 28
18 -6 68 -144 209 -78 80 -172 175 -208 213 -67 68 -77 74 -114 58z"/>
<path d="M1064 1054 c-15 -22 -15 -27 -3 -35 16 -10 53 -12 62 -2 4 3 2 12 -4
19 -6 8 -9 21 -5 29 10 26 -32 17 -50 -11z"/>
<path d="M1130 1050 c0 -5 5 -10 10 -10 6 0 10 5 10 10 0 6 -4 10 -10 10 -5 0
-10 -4 -10 -10z"/>
<path d="M838 1013 c-3 -4 -8 -20 -12 -35 -6 -25 -3 -28 31 -33 21 -4 53 -11
71 -15 29 -8 32 -6 32 15 0 13 7 31 16 40 9 9 15 17 13 19 -9 9 -147 17 -151
9z"/>
<path d="M1020 1002 c0 -10 60 -25 68 -17 8 8 0 12 -35 20 -19 4 -33 3 -33 -3z"/>
<path d="M986 964 c-3 -9 -6 -37 -6 -64 0 -43 2 -48 20 -43 11 3 20 12 20 19
0 8 9 14 19 14 11 0 21 3 23 8 2 4 16 17 32 30 24 18 26 23 12 28 -9 3 -25 4
-36 1 -11 -3 -18 -2 -15 3 3 4 -5 10 -18 14 -34 9 -44 7 -51 -10z"/>
<path d="M830 910 c0 -25 39 -50 90 -57 39 -6 40 -5 40 25 0 28 -3 31 -50 41
-70 15 -80 14 -80 -9z"/>
<path d="M1395 885 c-27 -25 -45 -45 -38 -45 15 0 95 61 101 78 7 22 -12 12
-63 -33z"/>
<path d="M1392 840 c-18 -11 -37 -18 -42 -15 -8 5 -19 -189 -13 -207 5 -12 77
13 101 35 26 24 28 54 6 86 -10 13 -16 43 -16 72 0 27 -1 49 -2 49 0 0 -16 -9
-34 -20z"/>
<path d="M1298 803 c-10 -11 -20 -52 -25 -100 l-9 -83 28 0 28 0 0 100 c0 55
-2 100 -3 100 -2 0 -11 -8 -19 -17z"/>
<path d="M963 459 c-16 -16 -17 -59 -3 -59 14 0 22 23 18 50 -2 17 -5 19 -15
9z"/>
<path d="M1657 463 c-11 -10 -8 -63 3 -63 6 0 10 6 10 13 0 6 3 22 6 35 6 21
-5 30 -19 15z"/>
<path d="M490 436 c0 -31 16 -42 28 -19 7 11 6 21 -3 30 -19 19 -25 16 -25
-11z"/>
<path d="M844 455 c-9 -22 1 -29 15 -11 8 10 9 16 1 21 -5 3 -13 -1 -16 -10z"/>
<path d="M1096 463 c-9 -10 -7 -53 3 -53 11 0 21 49 11 55 -4 2 -10 2 -14 -2z"/>
<path d="M1214 455 c-9 -22 1 -29 15 -11 8 10 9 16 1 21 -5 3 -13 -1 -16 -10z"/>
<path d="M1392 458 c-14 -14 -16 -44 -3 -52 5 -4 12 8 16 25 8 35 4 44 -13 27z"/>
<path d="M2007 463 c-4 -3 -7 -13 -7 -21 0 -12 3 -12 15 -2 8 7 15 16 15 21 0
11 -14 12 -23 2z"/>
<path d="M2457 463 c-4 -3 -7 -13 -7 -21 0 -12 3 -12 15 -2 8 7 15 16 15 21 0
11 -14 12 -23 2z"/>
<path d="M2811 456 c-8 -9 -11 -19 -7 -23 9 -9 29 13 24 27 -2 8 -8 7 -17 -4z"/>
<path d="M1210 230 c0 -5 5 -10 10 -10 6 0 10 5 10 10 0 6 -4 10 -10 10 -5 0
-10 -4 -10 -10z"/>
<path d="M1157 154 c-9 -10 6 -44 19 -44 18 0 18 36 0 43 -8 3 -16 3 -19 1z"/>
<path d="M292 138 c-14 -14 -16 -38 -2 -38 9 0 30 31 30 44 0 10 -15 7 -28 -6z"/>
<path d="M1670 135 c-6 -8 -8 -20 -4 -26 5 -9 11 -7 21 6 23 33 9 51 -17 20z"/>
<path d="M560 170 c0 -5 5 -10 11 -10 5 0 7 5 4 10 -3 6 -8 10 -11 10 -2 0 -4
-4 -4 -10z"/>
<path d="M657 143 c-6 -32 -3 -38 12 -28 13 8 15 55 2 55 -5 0 -11 -12 -14
-27z"/>
<path d="M960 154 c0 -14 3 -14 15 -4 8 7 15 14 15 16 0 2 -7 4 -15 4 -8 0
-15 -7 -15 -16z"/>
<path d="M1516 155 c-3 -8 -2 -15 3 -15 5 0 14 7 21 15 10 12 10 15 -3 15 -8
0 -17 -7 -21 -15z"/>
<path d="M2070 140 c0 -32 11 -38 28 -17 7 8 7 17 -2 30 -19 25 -26 21 -26
-13z"/>
<path d="M2294 145 c-7 -29 -1 -41 15 -30 14 8 14 55 1 55 -5 0 -12 -11 -16
-25z"/>
<path d="M2595 150 c-7 -22 0 -40 16 -40 17 0 21 29 6 45 -14 13 -16 13 -22
-5z"/>
</g>
</svg>
